# xmcd CD database file
#
# Track frame offsets:
#	150
#	14850
#	35545
#	54055
#	74917
#	98822
#	118885
#	135072
#	157642
#	174557
#
# Disc length: 2615 seconds
#
# Revision: 0
# Processed by: cddbd v1.5PL3 Copyright (c) Steve Scherf et al.
# Submitted via: CDex 1.51
#
DISCID=7f0a350a
DTITLE=The 東南西北 - 深呼吸
DYEAR=1900
DGENRE=Pop
TTITLE0=エイト・ビートのLove Letter
TTITLE1=誘惑のタッチ
TTITLE2=Shadow Dancing
TTITLE3=君をずっと想っていたよ
TTITLE4=Atmosphere
TTITLE5=I Love Youは嘘の言葉
TTITLE6=絵に描いたよりPictureness
TTITLE7=マリオネットの涙
TTITLE8=水色のドリーマー
TTITLE9=レゲエな気分
EXTD=
EXTT0=
EXTT1=
EXTT2=
EXTT3=
EXTT4=
EXTT5=
EXTT6=
EXTT7=
EXTT8=
EXTT9=
PLAYORDER=
